<svg width="130" height="22" viewBox="0 0 130 22" fill="none" xmlns="http://www.w3.org/2000/svg">
<g clip-path="url(#clip0)">
<path d="M31.9205 17.24C30.8705 17.24 30.0005 17.01 29.3005 16.56C28.6005 16.1 28.1005 15.49 27.8105 14.7L29.8405 13.52C30.2505 14.47 30.9705 14.94 32.0005 14.94C32.9305 14.94 33.3905 14.66 33.3905 14.1C33.3905 13.8 33.2405 13.56 32.9405 13.39C32.6405 13.22 32.0805 13.02 31.2605 12.8C30.8305 12.68 30.4505 12.55 30.1305 12.4C29.8105 12.25 29.4905 12.06 29.1805 11.82C28.8705 11.58 28.6405 11.28 28.4805 10.92C28.3205 10.56 28.2405 10.14 28.2405 9.66998C28.2405 8.71998 28.5805 7.95998 29.2605 7.38998C29.9405 6.81998 30.7505 6.53998 31.6905 6.53998C32.5305 6.53998 33.2805 6.73998 33.9205 7.12998C34.5705 7.52998 35.0705 8.09998 35.4505 8.85998L33.4706 10.02C33.2806 9.62998 33.0505 9.32998 32.7805 9.12998C32.5105 8.92998 32.1405 8.82998 31.6905 8.82998C31.3405 8.82998 31.0705 8.90998 30.8805 9.05998C30.6905 9.20998 30.5905 9.39998 30.5905 9.60998C30.5905 9.85998 30.7105 10.09 30.9505 10.27C31.1905 10.46 31.6905 10.66 32.4405 10.89L32.5773 10.9333C32.9222 11.0425 33.1956 11.1291 33.3905 11.2C33.6105 11.28 33.9005 11.41 34.2505 11.59C34.6005 11.77 34.8606 11.96 35.0406 12.16C35.2206 12.36 35.3805 12.63 35.5205 12.95C35.6605 13.28 35.7305 13.65 35.7305 14.07C35.7305 15.05 35.3805 15.82 34.6705 16.38C33.9805 16.96 33.0605 17.24 31.9205 17.24Z" fill="#2A2A2A"/>
<path fill-rule="evenodd" clip-rule="evenodd" d="M43.6595 6.75C44.6695 6.75 45.5195 7.09 46.2095 7.78C46.8995 8.47 47.2495 9.3 47.2495 10.28C47.2495 11.26 46.8995 12.09 46.2095 12.78C45.5195 13.47 44.6595 13.81 43.6595 13.81H42.1195V17.04H39.7695V6.75H43.6595ZM43.6595 11.6C44.0195 11.6 44.3195 11.47 44.5595 11.22C44.7895 10.97 44.9095 10.65 44.9095 10.28C44.9095 9.91 44.7895 9.59 44.5595 9.34C44.3195 9.09 44.0295 8.96 43.6595 8.96H42.1195V11.6H43.6595Z" fill="#2A2A2A"/>
<path d="M57.8291 14.77H53.7091V12.94H57.3791V10.71H53.7091V9.01H57.7491V6.75H51.3691V17.03H57.8291V14.77Z" fill="#2A2A2A"/>
<path d="M68.5401 14.77V17.03H62.0801V6.75H68.4601V9.01H64.4201V10.71H68.0901V12.94H64.4201V14.77H68.5401Z" fill="#2A2A2A"/>
<path fill-rule="evenodd" clip-rule="evenodd" d="M80.4608 8.23C79.5008 7.24 78.3208 6.75 76.9008 6.75H72.8008V17.03H76.9008C78.3208 17.03 79.5108 16.53 80.4608 15.55C81.4108 14.57 81.8908 13.35 81.8908 11.89C81.8908 10.44 81.4108 9.21 80.4608 8.23ZM78.8708 13.98C78.3708 14.51 77.7108 14.77 76.9008 14.77H75.1408V9.01H76.9008C77.7108 9.01 78.3708 9.28 78.8708 9.8C79.3808 10.32 79.6308 11.02 79.6308 11.89C79.6308 12.76 79.3708 13.46 78.8708 13.98Z" fill="#2A2A2A"/>
<path d="M84.9805 6.75H87.4505L89.2305 13.95L91.2105 6.75H93.1105L95.0905 13.95L96.8705 6.75H99.3405L96.5005 17.03H93.8305L92.1505 10.93L90.4705 17.03H87.8105L84.9805 6.75Z" fill="#2A2A2A"/>
<path d="M109.749 14.77H105.629V12.94H109.299V10.71H105.629V9.01H109.669V6.75H103.289V17.03H109.749V14.77Z" fill="#2A2A2A"/>
<path d="M116.35 14.77H120.02V17.03H114V6.75H116.35V14.77Z" fill="#2A2A2A"/>
<path d="M130 14.77H126.33V6.75H123.98V17.03H130V14.77Z" fill="#2A2A2A"/>
<path d="M21.98 22H0V0H21.98V11H18.08V3.9H3.9V18.1H21.98V22Z" fill="#2A2A2A"/>
</g>
<defs>
<clipPath id="clip0">
<rect width="130" height="22" fill="white"/>
</clipPath>
</defs>
</svg>
